<svg xmlns="http://www.w3.org/2000/svg" viewBox="0 0 800 450" width="800" height="450">
<defs>
  <radialGradient id="d2-bg" cx="50%" cy="35%" r="75%">
    <stop offset="0%" stop-color="#011828"/><stop offset="100%" stop-color="#010408"/>
  </radialGradient>
  <linearGradient id="d2-gold" x1="0%" y1="0%" x2="100%" y2="0%">
    <stop offset="0%" stop-color="#f59e0b" stop-opacity="0"/><stop offset="30%" stop-color="#f59e0b"/>
    <stop offset="70%" stop-color="#fbbf24"/><stop offset="100%" stop-color="#f59e0b" stop-opacity="0"/>
  </linearGradient>
  <linearGradient id="d2-spk" x1="0%" y1="0%" x2="0%" y2="100%">
    <stop offset="0%" stop-color="#1e3a5f"/><stop offset="100%" stop-color="#0f172a"/>
  </linearGradient>
  <filter id="d2-neo" x="-60%" y="-60%" width="220%" height="220%">
    <feGaussianBlur stdDeviation="12" result="b"/><feMerge><feMergeNode in="b"/><feMergeNode in="SourceGraphic"/></feMerge>
  </filter>
  <filter id="d2-glow" x="-40%" y="-40%" width="180%" height="180%">
    <feGaussianBlur stdDeviation="5" result="b"/><feMerge><feMergeNode in="b"/><feMergeNode in="SourceGraphic"/></feMerge>
  </filter>
</defs>
<rect width="800" height="450" fill="url(#d2-bg)"/>
<ellipse cx="400" cy="150" rx="360" ry="180" fill="#38bdf8" fill-opacity="0.04"/>
<rect x="0" y="0" width="800" height="2" fill="url(#d2-gold)"/>

<text x="400" y="40" text-anchor="middle" font-family="Arial,sans-serif" font-size="9" font-weight="700" fill="#7dd3fc" letter-spacing="8">SONIDO DAYSU · PAQUETE</text>
<text x="400" y="90" text-anchor="middle" font-family="Arial Black,sans-serif" font-size="32" font-weight="900" fill="#38bdf8" fill-opacity="0.5" letter-spacing="1" filter="url(#d2-neo)">DJ + AUDIO PROFESIONAL</text>
<text x="400" y="90" text-anchor="middle" font-family="Arial Black,sans-serif" font-size="32" font-weight="900" fill="#ffffff" letter-spacing="1">DJ + AUDIO PROFESIONAL</text>
<text x="400" y="113" text-anchor="middle" font-family="Arial Black,sans-serif" font-size="18" font-weight="900" fill="#38bdf8" letter-spacing="2">200 PERSONAS</text>

<line x1="80" y1="128" x2="720" y2="128" stroke="url(#d2-gold)" stroke-width="1.2"/>

<text x="400" y="163" text-anchor="middle" font-family="Arial Black,sans-serif" font-size="32" font-weight="900" fill="#fbbf24" filter="url(#d2-glow)">$4,500 MXN</text>
<text x="400" y="181" text-anchor="middle" font-family="Arial,sans-serif" font-size="10" fill="#94a3b8" letter-spacing="3">5 HRS + 1 RECEPCIÓN · HASTA 200 PERSONAS</text>

<line x1="160" y1="194" x2="640" y2="194" stroke="url(#d2-gold)" stroke-width="0.7" stroke-opacity="0.4"/>

<text x="220" y="218" font-family="Arial,sans-serif" font-size="14" fill="#38bdf8">✦</text>
<text x="244" y="218" font-family="Arial,sans-serif" font-size="14" fill="#e2e8f0">DJ Versátil mezclando en vivo</text>
<text x="220" y="244" font-family="Arial,sans-serif" font-size="14" fill="#38bdf8">✦</text>
<text x="244" y="244" font-family="Arial,sans-serif" font-size="14" fill="#e2e8f0">Audio profesional hasta 200 personas</text>
<text x="220" y="270" font-family="Arial,sans-serif" font-size="14" fill="#38bdf8">✦</text>
<text x="244" y="270" font-family="Arial,sans-serif" font-size="14" fill="#e2e8f0">Cabina LED pixel incluida</text>
<text x="220" y="296" font-family="Arial,sans-serif" font-size="13" fill="#0ea5e9">✦</text>
<text x="244" y="296" font-family="Arial,sans-serif" font-size="13" fill="#94a3b8" font-style="italic">Bodas, XV Años, eventos nocturnos</text>

<!-- BOTTOM STRIP -->
<rect x="0" y="310" width="800" height="140" fill="#030610"/>
<line x1="0" y1="310" x2="800" y2="310" stroke="url(#d2-gold)" stroke-width="1.2"/>

<!-- ICON: DJ Console + 1 Speaker -->
<!-- Speaker izq -->
<g transform="translate(95,318)">
  <rect x="0" y="0" width="62" height="100" rx="3" fill="url(#d2-spk)" stroke="#1e3a5f" stroke-width="1.2"/>
  <circle cx="31" cy="38" r="24" fill="#0f172a" stroke="#334155" stroke-width="1.5"/>
  <circle cx="31" cy="38" r="15" fill="#1e293b" stroke="#475569" stroke-width="1"/>
  <circle cx="31" cy="38" r="7"  fill="#0f172a"/>
  <circle cx="31" cy="38" r="3"  fill="#38bdf8" fill-opacity="0.7" filter="url(#d2-glow)"/>
  <circle cx="31" cy="76" r="12" fill="#0f172a" stroke="#334155" stroke-width="1.2"/>
  <circle cx="31" cy="76" r="6"  fill="#1e293b"/>
  <rect x="16" y="94" width="30" height="8" rx="4" fill="#0f172a" stroke="#334155" stroke-width="0.8"/>
  <ellipse cx="31" cy="103" rx="38" ry="5" fill="#38bdf8" fill-opacity="0.12" filter="url(#d2-glow)"/>
</g>

<!-- DJ Console centro -->
<g transform="translate(224,322)">
  <rect x="0" y="56" width="185" height="11" rx="3" fill="#152540" stroke="#38bdf8" stroke-width="1.2"/>
  <rect x="12" y="18" width="161" height="40" rx="4" fill="#0a1830" stroke="#38bdf8" stroke-width="1.5"/>
  <circle cx="42"  cy="38" r="14" fill="#060f20" stroke="#38bdf8" stroke-width="1.2"/>
  <circle cx="42"  cy="38" r="8"  fill="#152540" stroke="#0ea5e9" stroke-width="1"/>
  <circle cx="42"  cy="38" r="3.5" fill="#38bdf8" fill-opacity="0.8" filter="url(#d2-glow)"/>
  <circle cx="143" cy="38" r="14" fill="#060f20" stroke="#38bdf8" stroke-width="1.2"/>
  <circle cx="143" cy="38" r="8"  fill="#152540" stroke="#0ea5e9" stroke-width="1"/>
  <circle cx="143" cy="38" r="3.5" fill="#38bdf8" fill-opacity="0.8" filter="url(#d2-glow)"/>
  <rect x="70" y="22" width="45" height="32" rx="2" fill="#060f20"/>
  <rect x="73" y="25" width="39" height="4" rx="1" fill="#152540"/>
  <rect x="73" y="32" width="39" height="4" rx="1" fill="#152540"/>
  <circle cx="82"  cy="47" r="3" fill="#38bdf8" fill-opacity="0.8"/>
  <circle cx="92"  cy="47" r="3" fill="#0ea5e9" fill-opacity="0.8"/>
  <circle cx="102" cy="47" r="3" fill="#38bdf8" fill-opacity="0.8"/>
  <path d="M12 18 Q92 -10 173 18" fill="none" stroke="#38bdf8" stroke-width="2.5" stroke-linecap="round"/>
  <rect x="2"   y="6"  width="12" height="18" rx="4" fill="#0a1830" stroke="#38bdf8" stroke-width="1.5"/>
  <rect x="171" y="6"  width="12" height="18" rx="4" fill="#0a1830" stroke="#38bdf8" stroke-width="1.5"/>
  <ellipse cx="92" cy="68" rx="75" ry="6" fill="#38bdf8" fill-opacity="0.12" filter="url(#d2-glow)"/>
</g>

<text x="400" y="440" text-anchor="middle" font-family="Arial,sans-serif" font-size="9" font-weight="700" fill="#7dd3fc" letter-spacing="3">DJ VERSÁTIL · AUDIO PROFESIONAL · CABINA LED</text>
<rect x="0" y="448" width="800" height="2" fill="url(#d2-gold)"/>
</svg>
